<mxfile host="Electron" agent="Mozilla/5.0 (Windows NT 10.0; Win64; x64) AppleWebKit/537.36 (KHTML, like Gecko) draw.io/26.0.16 Chrome/132.0.6834.196 Electron/34.2.0 Safari/537.36" version="26.0.16">
  <diagram name="페이지-1" id="Q8Clo_Ufho6792_bujny">
    <mxGraphModel dx="1928" dy="1913" grid="1" gridSize="10" guides="1" tooltips="1" connect="1" arrows="1" fold="1" page="1" pageScale="1" pageWidth="827" pageHeight="1169" math="0" shadow="0">
      <root>
        <mxCell id="0" />
        <mxCell id="1" parent="0" />
        <mxCell id="fdRtmYrTrpVmrbO26SX1-10" style="edgeStyle=orthogonalEdgeStyle;rounded=0;orthogonalLoop=1;jettySize=auto;html=1;entryX=0.5;entryY=0;entryDx=0;entryDy=0;" parent="1" source="YdqSxE3475mty3qiGAgi-7" target="YdqSxE3475mty3qiGAgi-1" edge="1">
          <mxGeometry relative="1" as="geometry" />
        </mxCell>
        <mxCell id="fdRtmYrTrpVmrbO26SX1-13" style="edgeStyle=orthogonalEdgeStyle;rounded=0;orthogonalLoop=1;jettySize=auto;html=1;entryX=0;entryY=0.5;entryDx=0;entryDy=0;" parent="1" source="YdqSxE3475mty3qiGAgi-7" target="fdRtmYrTrpVmrbO26SX1-12" edge="1">
          <mxGeometry relative="1" as="geometry" />
        </mxCell>
        <mxCell id="fdRtmYrTrpVmrbO26SX1-19" style="edgeStyle=orthogonalEdgeStyle;rounded=0;orthogonalLoop=1;jettySize=auto;html=1;exitX=1;exitY=0.5;exitDx=0;exitDy=0;entryX=0;entryY=0.5;entryDx=0;entryDy=0;" parent="1" source="YdqSxE3475mty3qiGAgi-7" target="fdRtmYrTrpVmrbO26SX1-16" edge="1">
          <mxGeometry relative="1" as="geometry" />
        </mxCell>
        <mxCell id="YdqSxE3475mty3qiGAgi-7" value="Fly(State)" style="rounded=1;whiteSpace=wrap;html=1;" parent="1" vertex="1">
          <mxGeometry x="399" y="90" width="150" height="70" as="geometry" />
        </mxCell>
        <mxCell id="YdqSxE3475mty3qiGAgi-16" style="edgeStyle=orthogonalEdgeStyle;rounded=0;orthogonalLoop=1;jettySize=auto;html=1;entryX=0.5;entryY=1;entryDx=0;entryDy=0;" parent="1" source="YdqSxE3475mty3qiGAgi-5" target="YdqSxE3475mty3qiGAgi-3" edge="1">
          <mxGeometry relative="1" as="geometry" />
        </mxCell>
        <mxCell id="fdRtmYrTrpVmrbO26SX1-4" style="edgeStyle=orthogonalEdgeStyle;rounded=0;orthogonalLoop=1;jettySize=auto;html=1;entryX=1;entryY=0.5;entryDx=0;entryDy=0;" parent="1" source="YdqSxE3475mty3qiGAgi-5" target="fdRtmYrTrpVmrbO26SX1-1" edge="1">
          <mxGeometry relative="1" as="geometry" />
        </mxCell>
        <mxCell id="fdRtmYrTrpVmrbO26SX1-6" style="edgeStyle=orthogonalEdgeStyle;rounded=0;orthogonalLoop=1;jettySize=auto;html=1;entryX=0.5;entryY=0;entryDx=0;entryDy=0;" parent="1" source="YdqSxE3475mty3qiGAgi-5" target="fdRtmYrTrpVmrbO26SX1-5" edge="1">
          <mxGeometry relative="1" as="geometry" />
        </mxCell>
        <mxCell id="YdqSxE3475mty3qiGAgi-5" value="Ground(State&lt;span style=&quot;background-color: transparent; color: light-dark(rgb(0, 0, 0), rgb(255, 255, 255));&quot;&gt;)&lt;/span&gt;" style="rounded=1;whiteSpace=wrap;html=1;" parent="1" vertex="1">
          <mxGeometry x="159" y="210" width="150" height="70" as="geometry" />
        </mxCell>
        <mxCell id="YdqSxE3475mty3qiGAgi-10" style="edgeStyle=orthogonalEdgeStyle;rounded=0;orthogonalLoop=1;jettySize=auto;html=1;entryX=0;entryY=0.5;entryDx=0;entryDy=0;" parent="1" source="YdqSxE3475mty3qiGAgi-1" target="YdqSxE3475mty3qiGAgi-2" edge="1">
          <mxGeometry relative="1" as="geometry" />
        </mxCell>
        <mxCell id="YdqSxE3475mty3qiGAgi-1" value="Idle(Ground)" style="ellipse;whiteSpace=wrap;html=1;" parent="1" vertex="1">
          <mxGeometry x="414" y="330" width="120" height="80" as="geometry" />
        </mxCell>
        <mxCell id="YdqSxE3475mty3qiGAgi-15" style="edgeStyle=orthogonalEdgeStyle;rounded=0;orthogonalLoop=1;jettySize=auto;html=1;entryX=1;entryY=0.5;entryDx=0;entryDy=0;" parent="1" source="YdqSxE3475mty3qiGAgi-2" target="YdqSxE3475mty3qiGAgi-1" edge="1">
          <mxGeometry relative="1" as="geometry" />
        </mxCell>
        <mxCell id="YdqSxE3475mty3qiGAgi-2" value="Move(Ground&lt;span style=&quot;background-color: transparent; color: light-dark(rgb(0, 0, 0), rgb(255, 255, 255));&quot;&gt;)&lt;/span&gt;" style="ellipse;whiteSpace=wrap;html=1;" parent="1" vertex="1">
          <mxGeometry x="648" y="330" width="120" height="80" as="geometry" />
        </mxCell>
        <mxCell id="YdqSxE3475mty3qiGAgi-17" style="edgeStyle=orthogonalEdgeStyle;rounded=0;orthogonalLoop=1;jettySize=auto;html=1;entryX=0;entryY=0.5;entryDx=0;entryDy=0;" parent="1" source="YdqSxE3475mty3qiGAgi-3" target="YdqSxE3475mty3qiGAgi-7" edge="1">
          <mxGeometry relative="1" as="geometry" />
        </mxCell>
        <mxCell id="YdqSxE3475mty3qiGAgi-3" value="Jump(Fly)" style="ellipse;whiteSpace=wrap;html=1;" parent="1" vertex="1">
          <mxGeometry x="174" y="85" width="120" height="80" as="geometry" />
        </mxCell>
        <mxCell id="fdRtmYrTrpVmrbO26SX1-7" style="edgeStyle=orthogonalEdgeStyle;rounded=0;orthogonalLoop=1;jettySize=auto;html=1;entryX=0;entryY=0.5;entryDx=0;entryDy=0;" parent="1" source="fdRtmYrTrpVmrbO26SX1-1" target="YdqSxE3475mty3qiGAgi-1" edge="1">
          <mxGeometry relative="1" as="geometry">
            <Array as="points">
              <mxPoint x="35" y="450" />
              <mxPoint x="330" y="450" />
              <mxPoint x="330" y="370" />
            </Array>
          </mxGeometry>
        </mxCell>
        <mxCell id="fdRtmYrTrpVmrbO26SX1-1" value="Dash(Ground)" style="ellipse;whiteSpace=wrap;html=1;" parent="1" vertex="1">
          <mxGeometry x="-25" y="205" width="120" height="80" as="geometry" />
        </mxCell>
        <mxCell id="fdRtmYrTrpVmrbO26SX1-9" style="edgeStyle=orthogonalEdgeStyle;rounded=0;orthogonalLoop=1;jettySize=auto;html=1;entryX=0;entryY=0.5;entryDx=0;entryDy=0;" parent="1" source="fdRtmYrTrpVmrbO26SX1-5" target="YdqSxE3475mty3qiGAgi-1" edge="1">
          <mxGeometry relative="1" as="geometry" />
        </mxCell>
        <mxCell id="fdRtmYrTrpVmrbO26SX1-5" value="Attack&lt;span style=&quot;background-color: transparent; color: light-dark(rgb(0, 0, 0), rgb(255, 255, 255));&quot;&gt;(Ground)&lt;/span&gt;" style="ellipse;whiteSpace=wrap;html=1;" parent="1" vertex="1">
          <mxGeometry x="174" y="330" width="120" height="80" as="geometry" />
        </mxCell>
        <mxCell id="fdRtmYrTrpVmrbO26SX1-14" style="edgeStyle=orthogonalEdgeStyle;rounded=0;orthogonalLoop=1;jettySize=auto;html=1;entryX=1;entryY=0.5;entryDx=0;entryDy=0;" parent="1" source="fdRtmYrTrpVmrbO26SX1-12" target="YdqSxE3475mty3qiGAgi-7" edge="1">
          <mxGeometry relative="1" as="geometry" />
        </mxCell>
        <mxCell id="fdRtmYrTrpVmrbO26SX1-12" value="2단Jump(Fly)" style="ellipse;whiteSpace=wrap;html=1;" parent="1" vertex="1">
          <mxGeometry x="648" y="-10" width="120" height="80" as="geometry" />
        </mxCell>
        <mxCell id="fdRtmYrTrpVmrbO26SX1-18" style="edgeStyle=orthogonalEdgeStyle;rounded=0;orthogonalLoop=1;jettySize=auto;html=1;entryX=1;entryY=0.5;entryDx=0;entryDy=0;" parent="1" source="fdRtmYrTrpVmrbO26SX1-16" target="YdqSxE3475mty3qiGAgi-7" edge="1">
          <mxGeometry relative="1" as="geometry" />
        </mxCell>
        <mxCell id="fdRtmYrTrpVmrbO26SX1-16" value="WallJump(Fly)" style="ellipse;whiteSpace=wrap;html=1;" parent="1" vertex="1">
          <mxGeometry x="648" y="140" width="120" height="80" as="geometry" />
        </mxCell>
        <mxCell id="fdRtmYrTrpVmrbO26SX1-21" style="edgeStyle=orthogonalEdgeStyle;rounded=0;orthogonalLoop=1;jettySize=auto;html=1;entryX=0.5;entryY=1;entryDx=0;entryDy=0;" parent="1" source="fdRtmYrTrpVmrbO26SX1-20" target="YdqSxE3475mty3qiGAgi-1" edge="1">
          <mxGeometry relative="1" as="geometry" />
        </mxCell>
        <mxCell id="fdRtmYrTrpVmrbO26SX1-20" value="GameStart" style="rounded=0;whiteSpace=wrap;html=1;" parent="1" vertex="1">
          <mxGeometry x="414" y="490" width="120" height="60" as="geometry" />
        </mxCell>
      </root>
    </mxGraphModel>
  </diagram>
</mxfile>
